<?xml version="1.0" encoding="UTF-8" standalone="no"?>
<!-- Created with Inkscape (http://www.inkscape.org/) -->

<svg
   width="200mm"
   height="50mm"
   viewBox="0 0 200 50"
   version="1.1"
   id="svg967"
   sodipodi:docname="logofbowhite.svg"
   inkscape:version="1.1.2 (0a00cf5339, 2022-02-04)"
   xmlns:inkscape="http://www.inkscape.org/namespaces/inkscape"
   xmlns:sodipodi="http://sodipodi.sourceforge.net/DTD/sodipodi-0.dtd"
   xmlns:xlink="http://www.w3.org/1999/xlink"
   xmlns="http://www.w3.org/2000/svg"
   xmlns:svg="http://www.w3.org/2000/svg">
  <sodipodi:namedview
     id="namedview969"
     pagecolor="#ffffff"
     bordercolor="#000000"
     borderopacity="0.25"
     inkscape:pageshadow="2"
     inkscape:pageopacity="0.0"
     inkscape:pagecheckerboard="0"
     inkscape:document-units="px"
     showgrid="false"
     inkscape:snap-bbox="true"
     inkscape:bbox-paths="true"
     inkscape:snap-bbox-edge-midpoints="true"
     inkscape:snap-bbox-midpoints="true"
     inkscape:snap-intersection-paths="true"
     inkscape:object-nodes="false"
     inkscape:zoom="0.8310922"
     inkscape:cx="320.66238"
     inkscape:cy="41.51164"
     inkscape:window-width="1858"
     inkscape:window-height="1016"
     inkscape:window-x="0"
     inkscape:window-y="0"
     inkscape:window-maximized="1"
     inkscape:current-layer="layer1"
     inkscape:snap-object-midpoints="true"
     inkscape:bbox-nodes="true" />
  <defs
     id="defs964">
    <linearGradient
       inkscape:collect="always"
       xlink:href="#linearGradient47194"
       id="linearGradient50049"
       gradientUnits="userSpaceOnUse"
       gradientTransform="matrix(0.53840622,0,0,0.53841962,5.2589938,202.9137)"
       x1="21.107712"
       y1="-310.47601"
       x2="45.451595"
       y2="-334.69904" />
    <linearGradient
       inkscape:collect="always"
       id="linearGradient47194">
      <stop
         style="stop-color:#000948;stop-opacity:1"
         offset="0"
         id="stop47190" />
      <stop
         style="stop-color:#66297e;stop-opacity:0.99153918"
         offset="1"
         id="stop47192" />
    </linearGradient>
  </defs>
  <g
     inkscape:label="Camada 1"
     inkscape:groupmode="layer"
     id="layer1">
    <rect
       style="fill:none;fill-opacity:1;stroke-width:0.122133"
       id="rect49678-4"
       width="199.14395"
       height="50.358852"
       x="0.69256192"
       y="0.18580544"
       inkscape:export-filename="/home/administrator/Pictures/flybyodoo.png"
       inkscape:export-xdpi="96"
       inkscape:export-ydpi="96" />
    <g
       aria-label="saas"
       transform="scale(0.99998756,1.0000124)"
       id="text3422-1"
       style="font-weight:bold;font-size:10.5798px;font-family:Montserrat;-inkscape-font-specification:'Montserrat Bold';stroke:#000000;stroke-width:0.198372">
      <path
         d="m 165.87428,41.413912 q -0.69826,0 -1.33305,-0.190436 -0.62421,-0.190437 -0.98392,-0.465511 L 163.9805,39.9539 q 0.35971,0.243335 0.8887,0.412612 0.52899,0.169277 1.07914,0.169277 0.70885,0 1.01566,-0.201016 0.3174,-0.201017 0.3174,-0.56073 0,-0.264495 -0.19044,-0.412612 -0.19044,-0.148117 -0.50783,-0.222176 -0.30682,-0.07406 -0.68769,-0.126957 -0.38087,-0.06348 -0.76174,-0.148118 -0.38088,-0.09522 -0.69827,-0.253915 -0.31739,-0.169277 -0.50783,-0.454931 -0.19044,-0.296235 -0.19044,-0.782905 0,-0.507831 0.28566,-0.888703 0.28565,-0.380873 0.80406,-0.581889 0.52899,-0.211596 1.24842,-0.211596 0.55015,0 1.11088,0.137537 0.57131,0.126958 0.93102,0.370293 l -0.43377,0.804065 q -0.38088,-0.253915 -0.79349,-0.349134 -0.41261,-0.09522 -0.82522,-0.09522 -0.66653,0 -0.9945,0.222176 -0.32798,0.211596 -0.32798,0.550149 0,0.285655 0.19044,0.444352 0.20102,0.148117 0.50783,0.232756 0.31739,0.08464 0.69827,0.148117 0.38087,0.0529 0.76174,0.148117 0.38088,0.08464 0.68769,0.243335 0.31739,0.158697 0.50783,0.444352 0.20102,0.285655 0.20102,0.761746 0,0.50783 -0.29624,0.878123 -0.29623,0.370293 -0.8358,0.581889 -0.53957,0.201016 -1.29074,0.201016 z"
         style="font-weight:normal;-inkscape-font-specification:'Montserrat, Normal';stroke:none"
         id="path34466" />
      <path
         d="m 173.04738,41.350433 v -1.184937 l -0.0529,-0.222176 v -2.020742 q 0,-0.645368 -0.38087,-0.994501 -0.37029,-0.359713 -1.12146,-0.359713 -0.49725,0 -0.97334,0.169277 -0.47609,0.158697 -0.80407,0.433771 l -0.42319,-0.761745 q 0.43377,-0.349133 1.03682,-0.52899 0.61363,-0.190436 1.28016,-0.190436 1.1532,0 1.7774,0.560729 0.62421,0.560729 0.62421,1.713927 v 3.385536 z m -1.84089,0.06348 q -0.6242,0 -1.10029,-0.211596 -0.46552,-0.211596 -0.71943,-0.581889 -0.25392,-0.380873 -0.25392,-0.856964 0,-0.454931 0.2116,-0.825224 0.22218,-0.370293 0.70885,-0.592469 0.49725,-0.222176 1.33305,-0.222176 h 1.77741 v 0.730007 h -1.73509 q -0.76174,0 -1.02624,0.253915 -0.26449,0.253915 -0.26449,0.613628 0,0.412612 0.32797,0.666528 0.32797,0.243335 0.90986,0.243335 0.57131,0 0.9945,-0.253915 0.43377,-0.253915 0.62421,-0.740586 l 0.20102,0.698267 q -0.20102,0.49725 -0.70885,0.793485 -0.50783,0.285654 -1.28016,0.285654 z"
         style="font-weight:normal;-inkscape-font-specification:'Montserrat, Normal';stroke:none"
         id="path34468" />
      <path
         d="m 179.3741,41.350433 v -1.184937 l -0.0529,-0.222176 v -2.020742 q 0,-0.645368 -0.38088,-0.994501 -0.37029,-0.359713 -1.12145,-0.359713 -0.49726,0 -0.97335,0.169277 -0.47609,0.158697 -0.80406,0.433771 l -0.42319,-0.761745 q 0.43377,-0.349133 1.03682,-0.52899 0.61363,-0.190436 1.28015,-0.190436 1.1532,0 1.77741,0.560729 0.62421,0.560729 0.62421,1.713927 v 3.385536 z m -1.84089,0.06348 q -0.62421,0 -1.1003,-0.211596 -0.46551,-0.211596 -0.71942,-0.581889 -0.25392,-0.380873 -0.25392,-0.856964 0,-0.454931 0.2116,-0.825224 0.22217,-0.370293 0.70884,-0.592469 0.49725,-0.222176 1.33306,-0.222176 h 1.7774 v 0.730007 h -1.73508 q -0.76175,0 -1.02624,0.253915 -0.2645,0.253915 -0.2645,0.613628 0,0.412612 0.32797,0.666528 0.32798,0.243335 0.90987,0.243335 0.57131,0 0.9945,-0.253915 0.43377,-0.253915 0.62421,-0.740586 l 0.20101,0.698267 q -0.20101,0.49725 -0.70884,0.793485 -0.50783,0.285654 -1.28016,0.285654 z"
         style="font-weight:normal;-inkscape-font-specification:'Montserrat, Normal';stroke:none"
         id="path34470" />
      <path
         d="m 183.82819,41.413912 q -0.69827,0 -1.33306,-0.190436 -0.62421,-0.190437 -0.98392,-0.465511 L 181.9344,39.9539 q 0.35972,0.243335 0.88871,0.412612 0.52899,0.169277 1.07914,0.169277 0.70884,0 1.01566,-0.201016 0.31739,-0.201017 0.31739,-0.56073 0,-0.264495 -0.19044,-0.412612 -0.19043,-0.148117 -0.50783,-0.222176 -0.30681,-0.07406 -0.68768,-0.126957 -0.38088,-0.06348 -0.76175,-0.148118 -0.38087,-0.09522 -0.69827,-0.253915 -0.31739,-0.169277 -0.50783,-0.454931 -0.19043,-0.296235 -0.19043,-0.782905 0,-0.507831 0.28565,-0.888703 0.28566,-0.380873 0.80407,-0.581889 0.52899,-0.211596 1.24841,-0.211596 0.55015,0 1.11088,0.137537 0.57131,0.126958 0.93102,0.370293 l -0.43377,0.804065 q -0.38087,-0.253915 -0.79348,-0.349134 -0.41261,-0.09522 -0.82523,-0.09522 -0.66652,0 -0.9945,0.222176 -0.32797,0.211596 -0.32797,0.550149 0,0.285655 0.19043,0.444352 0.20102,0.148117 0.50784,0.232756 0.31739,0.08464 0.69826,0.148117 0.38087,0.0529 0.76175,0.148117 0.38087,0.08464 0.68768,0.243335 0.3174,0.158697 0.50783,0.444352 0.20102,0.285655 0.20102,0.761746 0,0.50783 -0.29623,0.878123 -0.29624,0.370293 -0.83581,0.581889 -0.53957,0.201016 -1.29073,0.201016 z"
         style="font-weight:normal;-inkscape-font-specification:'Montserrat, Normal';stroke:none"
         id="path34472" />
    </g>
    <g
       aria-label="flybyodoo"
       transform="scale(0.99998756,1.0000124)"
       id="text3422-4-6"
       style="font-weight:bold;font-size:29.252px;font-family:Montserrat;-inkscape-font-specification:'Montserrat Bold';stroke:#000000;stroke-width:0.304708">
      <path
         d="m 58.91657,9.4894586 c -3.451736,0 -5.8504,1.7551204 -5.821148,5.7918964 v 0.702048 h -2.164648 v 3.6565 h 2.164648 l 0.02925,10.735484 h 4.592564 l -0.02925,-10.735484 h 2.9252 v -3.6565 h -2.9252 v -0.819056 c 0,-1.31634 0.58504,-1.959884 1.725868,-1.959884 0.672796,0 0.994568,0.117008 1.31634,0.234016 h 0.117008 l 0.14626,-3.6565004 c -0.555788,-0.175512 -1.199332,-0.29252 -2.076892,-0.29252 z"
         style="font-family:'Lazare Grotesk Trial';-inkscape-font-specification:'Lazare Grotesk Trial, Bold';stroke:none"
         id="path34429" />
      <path
         d="M 67.370383,30.375387 V 9.6064666 H 62.777819 V 30.375387 Z"
         style="font-family:'Lazare Grotesk Trial';-inkscape-font-specification:'Lazare Grotesk Trial, Bold';stroke:none"
         id="path34431" />
      <path
         d="m 78.486134,35.933267 6.201424,-19.686596 v -0.380276 h -4.709572 l -2.603428,9.477648 h -0.87756 L 73.89357,15.866395 h -4.709572 v 0.380276 l 4.475556,14.128716 h 1.784372 l -1.725868,5.177604 v 0.380276 z"
         style="font-family:'Lazare Grotesk Trial';-inkscape-font-specification:'Lazare Grotesk Trial, Bold';stroke:none"
         id="path34433" />
      <path
         d="m 95.686301,30.726411 c 3.36398,0 6.406189,-3.100712 6.406189,-7.576268 v -0.0585 c 0,-4.475556 -3.042209,-7.576268 -6.406189,-7.576268 -1.90138,0 -3.334728,0.7313 -4.24154,2.164648 H 91.064485 V 9.6064666 H 86.471921 V 30.375387 h 4.504808 v -2.1939 h 0.351024 c 0.848308,1.60886 2.369412,2.544924 4.358548,2.544924 z m -1.433348,-4.036776 c -1.842876,0 -3.188468,-1.433348 -3.188468,-3.539492 v -0.0585 c 0,-2.135396 1.345592,-3.568744 3.188468,-3.568744 1.842876,0 3.129964,1.433348 3.129964,3.568744 v 0.0585 c 0,2.106144 -1.287088,3.539492 -3.129964,3.539492 z"
         style="font-family:'Lazare Grotesk Trial';-inkscape-font-specification:'Lazare Grotesk Trial, Bold';stroke:none"
         id="path34435" />
      <path
         d="m 112.35992,35.933267 6.20143,-19.686596 v -0.380276 h -4.70958 l -2.60342,9.477648 h -0.87756 l -2.60343,-9.477648 h -4.70957 v 0.380276 l 4.47555,14.128716 h 1.78437 l -1.72586,5.177604 v 0.380276 z"
         style="font-family:'Lazare Grotesk Trial';-inkscape-font-specification:'Lazare Grotesk Trial, Bold';stroke:none"
         id="path34437" />
      <path
         d="m 127.33694,30.726411 c 4.3878,0 7.89804,-3.100712 7.89804,-7.576268 v -0.0585 c 0,-4.475556 -3.51024,-7.576268 -7.89804,-7.576268 -4.3293,0 -7.83954,3.100712 -7.83954,7.576268 v 0.0585 c 0,4.475556 3.51024,7.576268 7.83954,7.576268 z m 0,-4.036776 c -1.84288,0 -3.12997,-1.433348 -3.12997,-3.539492 v -0.0585 c 0,-2.135396 1.28709,-3.568744 3.12997,-3.568744 1.87212,0 3.18846,1.433348 3.18846,3.568744 v 0.0585 c 0,2.106144 -1.31634,3.539492 -3.18846,3.539492 z"
         style="font-family:'Lazare Grotesk Trial';-inkscape-font-specification:'Lazare Grotesk Trial, Bold';stroke:none"
         id="path34439" />
      <path
         d="m 142.98675,30.726411 c 1.98913,0 3.51024,-0.936064 4.35855,-2.544924 h 0.35102 v 2.1939 h 4.50481 V 9.6064666 h -4.59257 v 8.0735524 h -0.38027 c -0.90681,-1.433348 -2.34016,-2.164648 -4.24154,-2.164648 -3.36398,0 -6.40619,3.100712 -6.40619,7.576268 v 0.0585 c 0,4.475556 3.04221,7.576268 6.40619,7.576268 z m 1.43335,-4.036776 c -1.84288,0 -3.12997,-1.433348 -3.12997,-3.539492 v -0.0585 c 0,-2.135396 1.28709,-3.568744 3.12997,-3.568744 1.84287,0 3.18846,1.433348 3.18846,3.568744 v 0.0585 c 0,2.106144 -1.34559,3.539492 -3.18846,3.539492 z"
         style="font-family:'Lazare Grotesk Trial';-inkscape-font-specification:'Lazare Grotesk Trial, Bold';stroke:none"
         id="path34441" />
      <path
         d="m 162.23455,30.726411 c 4.3878,0 7.89804,-3.100712 7.89804,-7.576268 v -0.0585 c 0,-4.475556 -3.51024,-7.576268 -7.89804,-7.576268 -4.3293,0 -7.83954,3.100712 -7.83954,7.576268 v 0.0585 c 0,4.475556 3.51024,7.576268 7.83954,7.576268 z m 0,-4.036776 c -1.84288,0 -3.12996,-1.433348 -3.12996,-3.539492 v -0.0585 c 0,-2.135396 1.28708,-3.568744 3.12996,-3.568744 1.87213,0 3.18847,1.433348 3.18847,3.568744 v 0.0585 c 0,2.106144 -1.31634,3.539492 -3.18847,3.539492 z"
         style="font-family:'Lazare Grotesk Trial';-inkscape-font-specification:'Lazare Grotesk Trial, Bold';stroke:none"
         id="path34443" />
      <path
         d="m 179.3177,30.726411 c 4.3878,0 7.89804,-3.100712 7.89804,-7.576268 v -0.0585 c 0,-4.475556 -3.51024,-7.576268 -7.89804,-7.576268 -4.32929,0 -7.83953,3.100712 -7.83953,7.576268 v 0.0585 c 0,4.475556 3.51024,7.576268 7.83953,7.576268 z m 0,-4.036776 c -1.84287,0 -3.12996,-1.433348 -3.12996,-3.539492 v -0.0585 c 0,-2.135396 1.28709,-3.568744 3.12996,-3.568744 1.87213,0 3.18847,1.433348 3.18847,3.568744 v 0.0585 c 0,2.106144 -1.31634,3.539492 -3.18847,3.539492 z"
         style="font-family:'Lazare Grotesk Trial';-inkscape-font-specification:'Lazare Grotesk Trial, Bold';stroke:none"
         id="path34445" />
    </g>
    <path
       style="fill:url(#linearGradient50049);fill-opacity:1;stroke-width:0.11184"
       d="m 17.035675,35.969753 c -0.12302,-0.02444 -0.266086,-0.08452 -0.317912,-0.133435 l -0.09425,-0.089 0.138553,-0.263646 c 0.07621,-0.145012 0.323856,-0.490127 0.550337,-0.76694 0.22648,-0.276804 0.571808,-0.729773 0.767395,-1.006585 0.195587,-0.276805 0.606887,-0.855584 0.913999,-1.286158 0.307113,-0.430581 0.520607,-0.792469 0.474433,-0.804187 -0.115769,-0.02939 -3.832305,-0.451335 -4.725269,-0.536455 -0.39982,-0.03809 -0.918811,-0.09868 -1.153308,-0.134673 l -0.426359,-0.0653 0.09084,-0.08909 c 0.125159,-0.122736 9.072909,-3.571177 9.38512,-3.617003 0.215039,-0.03157 0.479741,-0.290795 1.032593,-1.011287 0.28535,-0.371882 0.579346,-0.751637 0.653329,-0.84391 0.07397,-0.09224 0.472662,-0.595551 0.885974,-1.118405 0.413308,-0.522869 1.076726,-1.315541 1.474258,-1.761514 l 0.72279,-0.810861 h 0.248554 c 0.691643,0 2.375654,1.524567 2.926394,2.649315 l 0.284118,0.580241 -0.07053,0.222252 c -0.03881,0.122227 -0.507307,0.616058 -1.041143,1.097383 -0.533835,0.481332 -1.626262,1.479378 -2.427619,2.217871 -6.397429,5.895614 -9.019359,7.824407 -10.292302,7.571445 z M 32.189877,22.949576 C 31.629406,22.115428 30.42546,20.872352 29.467145,20.13832 29.01329,19.790685 28.597247,19.506037 28.54261,19.50579 c -0.05464,-2.17e-4 -0.349313,-0.127287 -0.654826,-0.2823 -0.731113,-0.3709 -2.474865,-0.904184 -3.649242,-1.115999 -0.516929,-0.09328 -2.50003,-0.399399 -4.406892,-0.680357 -1.906851,-0.280966 -3.512685,-0.555064 -3.568518,-0.609137 l -0.101506,-0.09834 0.142591,-0.171823 c 0.07843,-0.09451 0.803534,-0.375886 1.611343,-0.625309 0.807803,-0.249423 2.097829,-0.649751 2.866722,-0.88963 0.768897,-0.239879 2.329053,-0.718633 3.467018,-1.063891 1.137959,-0.345258 2.370985,-0.719427 2.740056,-0.831479 0.369067,-0.112097 1.098818,-0.332324 1.621669,-0.489489 0.522847,-0.157158 1.932017,-0.58375 3.131495,-0.947955 5.569871,-1.691254 8.639664,-2.4833251 9.624587,-2.4833251 h 0.513779 l 0.243171,0.2588629 0.243177,0.2588555 -0.0011,0.4401557 -0.001,0.44017 -0.261316,0.559203 c -0.386037,0.826111 -2.178526,3.410841 -3.257594,4.697351 -0.257968,0.307575 -0.6616,0.836022 -0.896958,1.174345 -0.235359,0.338315 -0.809661,1.067976 -1.276234,1.621451 -1.036458,1.229535 -1.073247,1.273974 -1.816415,2.194307 -0.714595,0.884944 -2.221243,2.671155 -2.252832,2.670856 -0.01228,-1.2e-4 -0.198483,-0.262372 -0.413776,-0.582776 z"
       id="path18722-4"
       sodipodi:nodetypes="sscssssssscsssssscsscsssscsssssscsssssssscccccsssssscc" />
  </g>
</svg>
